<svg width="309" height="170" viewBox="0 0 309 170" fill="none" xmlns="http://www.w3.org/2000/svg">
<path fill-rule="evenodd" clip-rule="evenodd" d="M54 2.72119V6.87664H63.5916V32.4058H68.1404V6.87664H77.7324V2.72119H54Z" fill="#1A191D"/>
<path fill-rule="evenodd" clip-rule="evenodd" d="M85.787 32.4061H81.4854V0.643066H85.787V15.2875H86.133C87.4681 11.231 90.3853 8.70706 94.5873 8.70706C99.6304 8.70706 101.954 12.0719 101.954 17.1181V32.4061H97.6532V18.1569C97.6532 14.9912 96.2688 12.616 92.7094 12.616C88.5065 12.616 85.787 15.2381 85.787 19.1961V32.4061Z" fill="#1A191D"/>
<path fill-rule="evenodd" clip-rule="evenodd" d="M123.855 26.3704H123.459C122.174 30.4768 119.109 33.0003 115.104 33.0003C109.913 33.0003 107.589 29.5864 107.589 24.5397V9.30127H111.89V23.501C111.89 26.717 113.225 29.0419 116.933 29.0419C121.037 29.0419 123.756 26.4693 123.756 22.5117V9.30127H128.057V32.4063H123.855V26.3704Z" fill="#1A191D"/>
<path fill-rule="evenodd" clip-rule="evenodd" d="M138.39 32.406H134.088V9.30103H138.291V15.2875H138.736C140.021 11.1811 143.086 8.70703 147.091 8.70703C152.233 8.70703 154.557 12.0719 154.557 17.1181V32.406H150.256V18.1569C150.256 14.9911 148.97 12.616 145.262 12.616C141.159 12.616 138.39 15.238 138.39 19.1961V32.406Z" fill="#1A191D"/>
<mask id="mask0_104_250" style="mask-type:alpha" maskUnits="userSpaceOnUse" x="158" y="0" width="23" height="33">
<path fill-rule="evenodd" clip-rule="evenodd" d="M158.953 0.643066H180.757V33H158.953V0.643066Z" fill="white"/>
</mask>
<g mask="url(#mask0_104_250)">
<path fill-rule="evenodd" clip-rule="evenodd" d="M176.456 21.8182V20.037C176.456 15.6343 173.836 12.6161 169.683 12.6161C165.332 12.6161 163.206 15.2876 163.206 20.9278C163.206 26.4691 165.282 29.1406 169.683 29.1406C173.787 29.1406 176.456 26.3203 176.456 21.8182V21.8182ZM176.457 26.2222H176.16C175.022 30.1797 172.154 33.0001 167.804 33.0001C162.168 33.0001 158.954 28.7449 158.954 20.9278C158.954 13.0616 162.267 8.70706 167.903 8.70706C172.452 8.70706 175.022 11.4779 176.16 15.4364H176.457V0.643066H180.758V32.4061H176.457V26.2222Z" fill="#1A191D"/>
</g>
<path fill-rule="evenodd" clip-rule="evenodd" d="M189.703 18.9987H203.201C203.002 14.5951 200.976 12.1214 196.723 12.1214C192.669 12.1214 190.197 14.3976 189.703 18.9987M185.353 21.0267C185.353 13.309 189.852 8.70752 196.823 8.70752C203.744 8.70752 207.205 12.9627 207.205 19.3449C207.205 20.0374 207.156 21.0766 207.057 22.1158H189.654C190 26.8153 192.472 29.3883 196.922 29.3883C201.075 29.3883 202.474 27.6271 203.079 25.777H207.008C205.87 30.1802 202.904 32.9506 196.922 32.9506C189.753 32.9506 185.353 28.6958 185.353 21.0267" fill="#1A191D"/>
<path fill-rule="evenodd" clip-rule="evenodd" d="M211.85 32.4061V9.3011H216.003V15.8321L216.349 15.8816C217.536 10.8353 219.91 9.0542 223.469 9.0542H224.359V13.8036H223.173C218.178 13.8036 216.152 15.7826 216.152 20.9773V32.4061H211.85Z" fill="#1A191D"/>
<path fill-rule="evenodd" clip-rule="evenodd" d="M228.768 9.30103V7.81667C228.768 3.11669 231.289 0 236.431 0C238.161 0 239.348 0.197435 240.287 0.395716L240.09 3.61133C239.002 3.46294 238.062 3.31412 237.073 3.31412C234.256 3.31412 233.069 4.89784 233.069 7.9156V9.30103H240.09V12.8633H233.069V32.406H228.768V12.8633V9.30103Z" fill="#1A191D"/>
<g filter="url(#filter0_d_104_250)">
<path fill-rule="evenodd" clip-rule="evenodd" d="M246.367 20.7303C246.367 25.9249 248.691 29.2399 253.586 29.2399C258.48 29.2399 260.903 25.9249 260.903 20.7303C260.903 15.5352 258.381 12.4181 253.635 12.4181C248.889 12.4181 246.367 15.5352 246.367 20.7303M242.065 20.7798C242.065 13.2096 246.614 8.70752 253.635 8.70752C260.605 8.70752 265.203 13.2096 265.203 20.7798C265.203 28.3001 260.951 33.0001 253.635 33.0001C246.317 33.0001 242.065 28.3001 242.065 20.7798" fill="#1A191D"/>
</g>
<path fill-rule="evenodd" clip-rule="evenodd" d="M272.668 20.7303C272.668 25.9249 274.992 29.2399 279.887 29.2399C284.781 29.2399 287.204 25.9249 287.204 20.7303C287.204 15.5352 284.683 12.4181 279.936 12.4181C275.19 12.4181 272.668 15.5352 272.668 20.7303M268.366 20.7798C268.366 13.2096 272.915 8.70752 279.936 8.70752C286.906 8.70752 291.505 13.2096 291.505 20.7798C291.505 28.3001 287.253 33.0001 279.936 33.0001C272.618 33.0001 268.366 28.3001 268.366 20.7798" fill="#1A191D"/>
<mask id="mask1_104_250" style="mask-type:alpha" maskUnits="userSpaceOnUse" x="296" y="2" width="13" height="32">
<path fill-rule="evenodd" clip-rule="evenodd" d="M296.427 2.81982H308.342V33.0003H296.427V2.81982Z" fill="white"/>
</mask>
<g mask="url(#mask1_104_250)">
<path fill-rule="evenodd" clip-rule="evenodd" d="M296.427 9.30137V2.81982H300.728V9.30137H308.095V12.8637H300.728V25.0345C300.728 27.6569 301.717 28.9929 304.288 28.9929C305.524 28.9929 306.562 28.7452 307.798 28.3989L308.342 32.2085C306.76 32.7032 305.524 33.0004 303.398 33.0004C298.553 33.0004 296.427 29.8338 296.427 25.5291V12.8637V9.30137Z" fill="#1A191D"/>
</g>
<defs>
<filter id="filter0_d_104_250" x="238.065" y="8.70752" width="31.1382" height="32.2925" filterUnits="userSpaceOnUse" color-interpolation-filters="sRGB">
<feFlood flood-opacity="0" result="BackgroundImageFix"/>
<feColorMatrix in="SourceAlpha" type="matrix" values="0 0 0 0 0 0 0 0 0 0 0 0 0 0 0 0 0 0 127 0" result="hardAlpha"/>
<feOffset dy="4"/>
<feGaussianBlur stdDeviation="2"/>
<feComposite in2="hardAlpha" operator="out"/>
<feColorMatrix type="matrix" values="0 0 0 0 0 0 0 0 0 0 0 0 0 0 0 0 0 0 0.25 0"/>
<feBlend mode="normal" in2="BackgroundImageFix" result="effect1_dropShadow_104_250"/>
<feBlend mode="normal" in="SourceGraphic" in2="effect1_dropShadow_104_250" result="shape"/>
</filter>
</defs>
</svg>
